<svg aria-roledescription="er" role="graphics-document document" viewBox="-117.22665405273438 0 838.648193359375 690" style="max-width: 3840px; background-color: white; max-height: 3840px;" xmlns:xlink="http://www.w3.org/1999/xlink" xmlns="http://www.w3.org/2000/svg" width="100%" id="my-svg"><style>#my-svg{font-family:arial,sans-serif;font-size:14px;fill:#333;}@keyframes edge-animation-frame{from{stroke-dashoffset:0;}}@keyframes dash{to{stroke-dashoffset:0;}}#my-svg .edge-animation-slow{stroke-dasharray:9,5!important;stroke-dashoffset:900;animation:dash 50s linear infinite;stroke-linecap:round;}#my-svg .edge-animation-fast{stroke-dasharray:9,5!important;stroke-dashoffset:900;animation:dash 20s linear infinite;stroke-linecap:round;}#my-svg .error-icon{fill:#ffffff;}#my-svg .error-text{fill:#000000;stroke:#000000;}#my-svg .edge-thickness-normal{stroke-width:2px;}#my-svg .edge-thickness-thick{stroke-width:3.5px;}#my-svg .edge-pattern-solid{stroke-dasharray:0;}#my-svg .edge-thickness-invisible{stroke-width:0;fill:none;}#my-svg .edge-pattern-dashed{stroke-dasharray:3;}#my-svg .edge-pattern-dotted{stroke-dasharray:2;}#my-svg .marker{fill:#000000;stroke:#000000;}#my-svg .marker.cross{stroke:#000000;}#my-svg svg{font-family:arial,sans-serif;font-size:14px;}#my-svg p{margin:0;}#my-svg .entityBox{fill:#ffffff;stroke:#000000;}#my-svg .attributeBoxOdd{fill:#ffffff;stroke:#000000;}#my-svg .attributeBoxEven{fill:#f2f2f2;stroke:#000000;}#my-svg .relationshipLabelBox{fill:#ffffff;opacity:0.7;background-color:#ffffff;}#my-svg .relationshipLabelBox rect{opacity:0.5;}#my-svg .relationshipLine{stroke:#000000;}#my-svg .entityTitleText{text-anchor:middle;font-size:18px;fill:#333;}#my-svg #MD_PARENT_START{fill:#f5f5f5!important;stroke:#000000!important;stroke-width:1;}#my-svg #MD_PARENT_END{fill:#f5f5f5!important;stroke:#000000!important;stroke-width:1;}#my-svg .node .neo-node{stroke:#000000;}#my-svg [data-look="neo"].node rect,#my-svg [data-look="neo"].cluster rect,#my-svg [data-look="neo"].node polygon{stroke:url(#my-svg-gradient);filter:drop-shadow( 0px 1px 2px rgba(0, 0, 0, 0.25));}#my-svg [data-look="neo"].node path{stroke:url(#my-svg-gradient);}#my-svg [data-look="neo"].node .outer-path{filter:drop-shadow( 0px 1px 2px rgba(0, 0, 0, 0.25));}#my-svg [data-look="neo"].node .neo-line path{stroke:hsl(0, 0%, 70%);filter:none;}#my-svg [data-look="neo"].node circle{stroke:url(#my-svg-gradient);filter:drop-shadow( 0px 1px 2px rgba(0, 0, 0, 0.25));}#my-svg [data-look="neo"].node circle .state-start{fill:#000000;}#my-svg [data-look="neo"].statediagram-cluster rect{fill:#ffffff;stroke:url(#my-svg-gradient);stroke-width:1px;}#my-svg [data-look="neo"].icon-shape .icon{fill:url(#my-svg-gradient);filter:drop-shadow( 0px 1px 2px rgba(0, 0, 0, 0.25));}#my-svg [data-look="neo"].icon-shape .icon-neo path{stroke:url(#my-svg-gradient);filter:drop-shadow( 0px 1px 2px rgba(0, 0, 0, 0.25));}#my-svg :root{--mermaid-font-family:"trebuchet ms",verdana,arial,sans-serif;}</style><g/><defs><marker orient="auto" markerHeight="240" markerWidth="190" refY="7" refX="0" id="MD_PARENT_START"><path d="M 18,7 L9,13 L1,7 L9,1 Z"/></marker></defs><defs><marker orient="auto" markerHeight="28" markerWidth="20" refY="7" refX="19" id="MD_PARENT_END"><path d="M 18,7 L9,13 L1,7 L9,1 Z"/></marker></defs><defs><marker orient="auto" markerHeight="18" markerWidth="18" refY="9" refX="0" id="ONLY_ONE_START"><path d="M9,0 L9,18 M15,0 L15,18" fill="none" stroke="gray"/></marker></defs><defs><marker orient="auto" markerHeight="18" markerWidth="18" refY="9" refX="18" id="ONLY_ONE_END"><path d="M3,0 L3,18 M9,0 L9,18" fill="none" stroke="gray"/></marker></defs><defs><marker orient="auto" markerHeight="18" markerWidth="30" refY="9" refX="0" id="ZERO_OR_ONE_START"><circle r="6" cy="9" cx="21" fill="white" stroke="gray"/><path d="M9,0 L9,18" fill="none" stroke="gray"/></marker></defs><defs><marker orient="auto" markerHeight="18" markerWidth="30" refY="9" refX="30" id="ZERO_OR_ONE_END"><circle r="6" cy="9" cx="9" fill="white" stroke="gray"/><path d="M21,0 L21,18" fill="none" stroke="gray"/></marker></defs><defs><marker orient="auto" markerHeight="36" markerWidth="45" refY="18" refX="18" id="ONE_OR_MORE_START"><path d="M0,18 Q 18,0 36,18 Q 18,36 0,18 M42,9 L42,27" fill="none" stroke="gray"/></marker></defs><defs><marker orient="auto" markerHeight="36" markerWidth="45" refY="18" refX="27" id="ONE_OR_MORE_END"><path d="M3,9 L3,27 M9,18 Q27,0 45,18 Q27,36 9,18" fill="none" stroke="gray"/></marker></defs><defs><marker orient="auto" markerHeight="36" markerWidth="57" refY="18" refX="18" id="ZERO_OR_MORE_START"><circle r="6" cy="18" cx="48" fill="white" stroke="gray"/><path d="M0,18 Q18,0 36,18 Q18,36 0,18" fill="none" stroke="gray"/></marker></defs><defs><marker orient="auto" markerHeight="36" markerWidth="57" refY="18" refX="39" id="ZERO_OR_MORE_END"><circle r="6" cy="18" cx="9" fill="white" stroke="gray"/><path d="M21,18 Q39,0 57,18 Q39,36 21,18" fill="none" stroke="gray"/></marker></defs><path style="stroke: gray; fill: none;" marker-start="url(#ONLY_ONE_START)" marker-end="url(#ZERO_OR_MORE_END)" d="M304.189,149L313.998,157.333C323.807,165.667,343.425,182.333,353.235,202.5C363.044,222.667,363.044,246.333,363.044,258.167L363.044,270" class="er relationshipLine"/><path style="stroke: gray; fill: none;" marker-start="url(#ONLY_ONE_START)" marker-end="url(#ZERO_OR_MORE_END)" d="M107.836,129.232L76.53,140.86C45.224,152.488,-17.388,175.744,-48.694,209.955C-80,244.167,-80,289.333,-80,334.5C-80,379.667,-80,424.833,-61.902,457.629C-43.805,490.424,-7.61,510.848,10.488,521.06L28.585,531.272" class="er relationshipLine"/><path style="stroke: gray; fill: none;" marker-start="url(#ONLY_ONE_START)" marker-end="url(#ZERO_OR_MORE_END)" d="M363.044,399L363.044,410.833C363.044,422.667,363.044,446.333,344.946,468.379C326.849,490.424,290.654,510.848,272.556,521.06L254.459,531.272" class="er relationshipLine"/><path style="stroke: gray; fill: none;" marker-start="url(#ONLY_ONE_START)" marker-end="url(#ZERO_OR_MORE_END)" d="M152.343,149L142.533,157.333C132.724,165.667,113.106,182.333,103.297,199C93.488,215.667,93.488,232.333,93.488,240.667L93.488,249" class="er relationshipLine"/><path style="stroke: gray; fill: none;" marker-start="url(#ONLY_ONE_START)" marker-end="url(#ZERO_OR_MORE_END)" d="M348.695,126.179L383.765,138.315C418.834,150.452,488.973,174.726,524.043,209.446C559.112,244.167,559.112,289.333,559.112,334.5C559.112,379.667,559.112,424.833,564.135,459.25C569.158,493.667,579.204,517.333,584.227,529.167L589.25,541" class="er relationshipLine"/><path style="stroke: gray; fill: none;" marker-start="url(#ONLY_ONE_START)" marker-end="url(#ZERO_OR_MORE_END)" d="M459.112,378.018L492.956,393.348C526.799,408.678,594.485,439.339,623.595,466.503C652.705,493.667,643.238,517.333,638.505,529.167L633.771,541" class="er relationshipLine"/><g transform="translate(107.83586120605469,20 )" id="entity-USER-6e7e2962-0c6f-577d-a7fd-2ce3a0cfd2c8"><rect height="129" width="240.859619140625" y="0" x="0" class="er entityBox"/><text style="dominant-baseline: middle; text-anchor: middle; font-size: 12px;" transform="translate(120.4298095703125,12)" y="0" x="0" id="text-entity-USER-6e7e2962-0c6f-577d-a7fd-2ce3a0cfd2c8" class="er entityLabel">USER</text><rect height="21" width="49.4078369140625" y="24" x="0" class="er attributeBoxOdd"/><text style="dominant-baseline: middle; font-size: 10.2px;" transform="translate(5,34.5)" y="0" x="0" id="text-entity-USER-6e7e2962-0c6f-577d-a7fd-2ce3a0cfd2c8-attr-1-type" class="er entityLabel">int</text><rect height="21" width="81.359375" y="24" x="49.4078369140625" class="er attributeBoxOdd"/><text style="dominant-baseline: middle; font-size: 10.2px;" transform="translate(54.4078369140625,34.5)" y="0" x="0" id="text-entity-USER-6e7e2962-0c6f-577d-a7fd-2ce3a0cfd2c8-attr-1-name" class="er entityLabel">id</text><rect height="21" width="23.79498291015625" y="24" x="130.7672119140625" class="er attributeBoxOdd"/><text style="dominant-baseline: middle; font-size: 10.2px;" transform="translate(135.7672119140625,34.5)" y="0" x="0" id="text-entity-USER-6e7e2962-0c6f-577d-a7fd-2ce3a0cfd2c8-attr-1-key" class="er entityLabel">PK</text><rect height="21" width="86.29742431640625" y="24" x="154.56219482421875" class="er attributeBoxOdd"/><text style="dominant-baseline: middle; font-size: 10.2px;" transform="translate(159.56219482421875,34.5)" y="0" x="0" id="text-entity-USER-6e7e2962-0c6f-577d-a7fd-2ce3a0cfd2c8-attr-1-comment" class="er entityLabel"/><rect height="21" width="49.4078369140625" y="45" x="0" class="er attributeBoxEven"/><text style="dominant-baseline: middle; font-size: 10.2px;" transform="translate(5,55.5)" y="0" x="0" id="text-entity-USER-6e7e2962-0c6f-577d-a7fd-2ce3a0cfd2c8-attr-2-type" class="er entityLabel">string</text><rect height="21" width="81.359375" y="45" x="49.4078369140625" class="er attributeBoxEven"/><text style="dominant-baseline: middle; font-size: 10.2px;" transform="translate(54.4078369140625,55.5)" y="0" x="0" id="text-entity-USER-6e7e2962-0c6f-577d-a7fd-2ce3a0cfd2c8-attr-2-name" class="er entityLabel">email</text><rect height="21" width="23.79498291015625" y="45" x="130.7672119140625" class="er attributeBoxEven"/><text style="dominant-baseline: middle; font-size: 10.2px;" transform="translate(135.7672119140625,55.5)" y="0" x="0" id="text-entity-USER-6e7e2962-0c6f-577d-a7fd-2ce3a0cfd2c8-attr-2-key" class="er entityLabel"/><rect height="21" width="86.29742431640625" y="45" x="154.56219482421875" class="er attributeBoxEven"/><text style="dominant-baseline: middle; font-size: 10.2px;" transform="translate(159.56219482421875,55.5)" y="0" x="0" id="text-entity-USER-6e7e2962-0c6f-577d-a7fd-2ce3a0cfd2c8-attr-2-comment" class="er entityLabel">UNIQUE</text><rect height="21" width="49.4078369140625" y="66" x="0" class="er attributeBoxOdd"/><text style="dominant-baseline: middle; font-size: 10.2px;" transform="translate(5,76.5)" y="0" x="0" id="text-entity-USER-6e7e2962-0c6f-577d-a7fd-2ce3a0cfd2c8-attr-3-type" class="er entityLabel">string</text><rect height="21" width="81.359375" y="66" x="49.4078369140625" class="er attributeBoxOdd"/><text style="dominant-baseline: middle; font-size: 10.2px;" transform="translate(54.4078369140625,76.5)" y="0" x="0" id="text-entity-USER-6e7e2962-0c6f-577d-a7fd-2ce3a0cfd2c8-attr-3-name" class="er entityLabel">password_hash</text><rect height="21" width="23.79498291015625" y="66" x="130.7672119140625" class="er attributeBoxOdd"/><text style="dominant-baseline: middle; font-size: 10.2px;" transform="translate(135.7672119140625,76.5)" y="0" x="0" id="text-entity-USER-6e7e2962-0c6f-577d-a7fd-2ce3a0cfd2c8-attr-3-key" class="er entityLabel"/><rect height="21" width="86.29742431640625" y="66" x="154.56219482421875" class="er attributeBoxOdd"/><text style="dominant-baseline: middle; font-size: 10.2px;" transform="translate(159.56219482421875,76.5)" y="0" x="0" id="text-entity-USER-6e7e2962-0c6f-577d-a7fd-2ce3a0cfd2c8-attr-3-comment" class="er entityLabel"/><rect height="21" width="49.4078369140625" y="87" x="0" class="er attributeBoxEven"/><text style="dominant-baseline: middle; font-size: 10.2px;" transform="translate(5,97.5)" y="0" x="0" id="text-entity-USER-6e7e2962-0c6f-577d-a7fd-2ce3a0cfd2c8-attr-4-type" class="er entityLabel">string</text><rect height="21" width="81.359375" y="87" x="49.4078369140625" class="er attributeBoxEven"/><text style="dominant-baseline: middle; font-size: 10.2px;" transform="translate(54.4078369140625,97.5)" y="0" x="0" id="text-entity-USER-6e7e2962-0c6f-577d-a7fd-2ce3a0cfd2c8-attr-4-name" class="er entityLabel">role</text><rect height="21" width="23.79498291015625" y="87" x="130.7672119140625" class="er attributeBoxEven"/><text style="dominant-baseline: middle; font-size: 10.2px;" transform="translate(135.7672119140625,97.5)" y="0" x="0" id="text-entity-USER-6e7e2962-0c6f-577d-a7fd-2ce3a0cfd2c8-attr-4-key" class="er entityLabel"/><rect height="21" width="86.29742431640625" y="87" x="154.56219482421875" class="er attributeBoxEven"/><text style="dominant-baseline: middle; font-size: 10.2px;" transform="translate(159.56219482421875,97.5)" y="0" x="0" id="text-entity-USER-6e7e2962-0c6f-577d-a7fd-2ce3a0cfd2c8-attr-4-comment" class="er entityLabel">admin | observer</text><rect height="21" width="49.4078369140625" y="108" x="0" class="er attributeBoxOdd"/><text style="dominant-baseline: middle; font-size: 10.2px;" transform="translate(5,118.5)" y="0" x="0" id="text-entity-USER-6e7e2962-0c6f-577d-a7fd-2ce3a0cfd2c8-attr-5-type" class="er entityLabel">datetime</text><rect height="21" width="81.359375" y="108" x="49.4078369140625" class="er attributeBoxOdd"/><text style="dominant-baseline: middle; font-size: 10.2px;" transform="translate(54.4078369140625,118.5)" y="0" x="0" id="text-entity-USER-6e7e2962-0c6f-577d-a7fd-2ce3a0cfd2c8-attr-5-name" class="er entityLabel">created_at</text><rect height="21" width="23.79498291015625" y="108" x="130.7672119140625" class="er attributeBoxOdd"/><text style="dominant-baseline: middle; font-size: 10.2px;" transform="translate(135.7672119140625,118.5)" y="0" x="0" id="text-entity-USER-6e7e2962-0c6f-577d-a7fd-2ce3a0cfd2c8-attr-5-key" class="er entityLabel"/><rect height="21" width="86.29742431640625" y="108" x="154.56219482421875" class="er attributeBoxOdd"/><text style="dominant-baseline: middle; font-size: 10.2px;" transform="translate(159.56219482421875,118.5)" y="0" x="0" id="text-entity-USER-6e7e2962-0c6f-577d-a7fd-2ce3a0cfd2c8-attr-5-comment" class="er entityLabel"/></g><g transform="translate(266.97509765625,270 )" id="entity-CATEGORY-4496cc9e-da1f-5994-ab05-87aa395a773d"><rect height="129" width="192.13739013671875" y="0" x="0" class="er entityBox"/><text style="dominant-baseline: middle; text-anchor: middle; font-size: 12px;" transform="translate(96.06869506835938,12)" y="0" x="0" id="text-entity-CATEGORY-4496cc9e-da1f-5994-ab05-87aa395a773d" class="er entityLabel">CATEGORY</text><rect height="21" width="34.921875" y="24" x="0" class="er attributeBoxOdd"/><text style="dominant-baseline: middle; font-size: 10.2px;" transform="translate(5,34.5)" y="0" x="0" id="text-entity-CATEGORY-4496cc9e-da1f-5994-ab05-87aa395a773d-attr-1-type" class="er entityLabel">int</text><rect height="21" width="43.421875" y="24" x="34.921875" class="er attributeBoxOdd"/><text style="dominant-baseline: middle; font-size: 10.2px;" transform="translate(39.921875,34.5)" y="0" x="0" id="text-entity-CATEGORY-4496cc9e-da1f-5994-ab05-87aa395a773d-attr-1-name" class="er entityLabel">id</text><rect height="21" width="23.79498291015625" y="24" x="78.34375" class="er attributeBoxOdd"/><text style="dominant-baseline: middle; font-size: 10.2px;" transform="translate(83.34375,34.5)" y="0" x="0" id="text-entity-CATEGORY-4496cc9e-da1f-5994-ab05-87aa395a773d-attr-1-key" class="er entityLabel">PK</text><rect height="21" width="89.9986572265625" y="24" x="102.13873291015625" class="er attributeBoxOdd"/><text style="dominant-baseline: middle; font-size: 10.2px;" transform="translate(107.13873291015625,34.5)" y="0" x="0" id="text-entity-CATEGORY-4496cc9e-da1f-5994-ab05-87aa395a773d-attr-1-comment" class="er entityLabel"/><rect height="21" width="34.921875" y="45" x="0" class="er attributeBoxEven"/><text style="dominant-baseline: middle; font-size: 10.2px;" transform="translate(5,55.5)" y="0" x="0" id="text-entity-CATEGORY-4496cc9e-da1f-5994-ab05-87aa395a773d-attr-2-type" class="er entityLabel">string</text><rect height="21" width="43.421875" y="45" x="34.921875" class="er attributeBoxEven"/><text style="dominant-baseline: middle; font-size: 10.2px;" transform="translate(39.921875,55.5)" y="0" x="0" id="text-entity-CATEGORY-4496cc9e-da1f-5994-ab05-87aa395a773d-attr-2-name" class="er entityLabel">name</text><rect height="21" width="23.79498291015625" y="45" x="78.34375" class="er attributeBoxEven"/><text style="dominant-baseline: middle; font-size: 10.2px;" transform="translate(83.34375,55.5)" y="0" x="0" id="text-entity-CATEGORY-4496cc9e-da1f-5994-ab05-87aa395a773d-attr-2-key" class="er entityLabel"/><rect height="21" width="89.9986572265625" y="45" x="102.13873291015625" class="er attributeBoxEven"/><text style="dominant-baseline: middle; font-size: 10.2px;" transform="translate(107.13873291015625,55.5)" y="0" x="0" id="text-entity-CATEGORY-4496cc9e-da1f-5994-ab05-87aa395a773d-attr-2-comment" class="er entityLabel"/><rect height="21" width="34.921875" y="66" x="0" class="er attributeBoxOdd"/><text style="dominant-baseline: middle; font-size: 10.2px;" transform="translate(5,76.5)" y="0" x="0" id="text-entity-CATEGORY-4496cc9e-da1f-5994-ab05-87aa395a773d-attr-3-type" class="er entityLabel">string</text><rect height="21" width="43.421875" y="66" x="34.921875" class="er attributeBoxOdd"/><text style="dominant-baseline: middle; font-size: 10.2px;" transform="translate(39.921875,76.5)" y="0" x="0" id="text-entity-CATEGORY-4496cc9e-da1f-5994-ab05-87aa395a773d-attr-3-name" class="er entityLabel">type</text><rect height="21" width="23.79498291015625" y="66" x="78.34375" class="er attributeBoxOdd"/><text style="dominant-baseline: middle; font-size: 10.2px;" transform="translate(83.34375,76.5)" y="0" x="0" id="text-entity-CATEGORY-4496cc9e-da1f-5994-ab05-87aa395a773d-attr-3-key" class="er entityLabel"/><rect height="21" width="89.9986572265625" y="66" x="102.13873291015625" class="er attributeBoxOdd"/><text style="dominant-baseline: middle; font-size: 10.2px;" transform="translate(107.13873291015625,76.5)" y="0" x="0" id="text-entity-CATEGORY-4496cc9e-da1f-5994-ab05-87aa395a773d-attr-3-comment" class="er entityLabel">expense | income</text><rect height="21" width="34.921875" y="87" x="0" class="er attributeBoxEven"/><text style="dominant-baseline: middle; font-size: 10.2px;" transform="translate(5,97.5)" y="0" x="0" id="text-entity-CATEGORY-4496cc9e-da1f-5994-ab05-87aa395a773d-attr-4-type" class="er entityLabel">string</text><rect height="21" width="43.421875" y="87" x="34.921875" class="er attributeBoxEven"/><text style="dominant-baseline: middle; font-size: 10.2px;" transform="translate(39.921875,97.5)" y="0" x="0" id="text-entity-CATEGORY-4496cc9e-da1f-5994-ab05-87aa395a773d-attr-4-name" class="er entityLabel">icon</text><rect height="21" width="23.79498291015625" y="87" x="78.34375" class="er attributeBoxEven"/><text style="dominant-baseline: middle; font-size: 10.2px;" transform="translate(83.34375,97.5)" y="0" x="0" id="text-entity-CATEGORY-4496cc9e-da1f-5994-ab05-87aa395a773d-attr-4-key" class="er entityLabel"/><rect height="21" width="89.9986572265625" y="87" x="102.13873291015625" class="er attributeBoxEven"/><text style="dominant-baseline: middle; font-size: 10.2px;" transform="translate(107.13873291015625,97.5)" y="0" x="0" id="text-entity-CATEGORY-4496cc9e-da1f-5994-ab05-87aa395a773d-attr-4-comment" class="er entityLabel"/><rect height="21" width="34.921875" y="108" x="0" class="er attributeBoxOdd"/><text style="dominant-baseline: middle; font-size: 10.2px;" transform="translate(5,118.5)" y="0" x="0" id="text-entity-CATEGORY-4496cc9e-da1f-5994-ab05-87aa395a773d-attr-5-type" class="er entityLabel">int</text><rect height="21" width="43.421875" y="108" x="34.921875" class="er attributeBoxOdd"/><text style="dominant-baseline: middle; font-size: 10.2px;" transform="translate(39.921875,118.5)" y="0" x="0" id="text-entity-CATEGORY-4496cc9e-da1f-5994-ab05-87aa395a773d-attr-5-name" class="er entityLabel">user_id</text><rect height="21" width="23.79498291015625" y="108" x="78.34375" class="er attributeBoxOdd"/><text style="dominant-baseline: middle; font-size: 10.2px;" transform="translate(83.34375,118.5)" y="0" x="0" id="text-entity-CATEGORY-4496cc9e-da1f-5994-ab05-87aa395a773d-attr-5-key" class="er entityLabel">FK</text><rect height="21" width="89.9986572265625" y="108" x="102.13873291015625" class="er attributeBoxOdd"/><text style="dominant-baseline: middle; font-size: 10.2px;" transform="translate(107.13873291015625,118.5)" y="0" x="0" id="text-entity-CATEGORY-4496cc9e-da1f-5994-ab05-87aa395a773d-attr-5-comment" class="er entityLabel"/></g><g transform="translate(28.585220336914062,520 )" id="entity-TRANSACTION-33a4f79e-93d2-5b31-be7e-7dfe596c998b"><rect height="150" width="225.87335205078125" y="0" x="0" class="er entityBox"/><text style="dominant-baseline: middle; text-anchor: middle; font-size: 12px;" transform="translate(112.93667602539062,12)" y="0" x="0" id="text-entity-TRANSACTION-33a4f79e-93d2-5b31-be7e-7dfe596c998b" class="er entityLabel">TRANSACTION</text><rect height="21" width="49.4078369140625" y="24" x="0" class="er attributeBoxOdd"/><text style="dominant-baseline: middle; font-size: 10.2px;" transform="translate(5,34.5)" y="0" x="0" id="text-entity-TRANSACTION-33a4f79e-93d2-5b31-be7e-7dfe596c998b-attr-1-type" class="er entityLabel">int</text><rect height="21" width="62.671875" y="24" x="49.4078369140625" class="er attributeBoxOdd"/><text style="dominant-baseline: middle; font-size: 10.2px;" transform="translate(54.4078369140625,34.5)" y="0" x="0" id="text-entity-TRANSACTION-33a4f79e-93d2-5b31-be7e-7dfe596c998b-attr-1-name" class="er entityLabel">id</text><rect height="21" width="23.79498291015625" y="24" x="112.0797119140625" class="er attributeBoxOdd"/><text style="dominant-baseline: middle; font-size: 10.2px;" transform="translate(117.0797119140625,34.5)" y="0" x="0" id="text-entity-TRANSACTION-33a4f79e-93d2-5b31-be7e-7dfe596c998b-attr-1-key" class="er entityLabel">PK</text><rect height="21" width="89.9986572265625" y="24" x="135.87469482421875" class="er attributeBoxOdd"/><text style="dominant-baseline: middle; font-size: 10.2px;" transform="translate(140.87469482421875,34.5)" y="0" x="0" id="text-entity-TRANSACTION-33a4f79e-93d2-5b31-be7e-7dfe596c998b-attr-1-comment" class="er entityLabel"/><rect height="21" width="49.4078369140625" y="45" x="0" class="er attributeBoxEven"/><text style="dominant-baseline: middle; font-size: 10.2px;" transform="translate(5,55.5)" y="0" x="0" id="text-entity-TRANSACTION-33a4f79e-93d2-5b31-be7e-7dfe596c998b-attr-2-type" class="er entityLabel">decimal</text><rect height="21" width="62.671875" y="45" x="49.4078369140625" class="er attributeBoxEven"/><text style="dominant-baseline: middle; font-size: 10.2px;" transform="translate(54.4078369140625,55.5)" y="0" x="0" id="text-entity-TRANSACTION-33a4f79e-93d2-5b31-be7e-7dfe596c998b-attr-2-name" class="er entityLabel">amount</text><rect height="21" width="23.79498291015625" y="45" x="112.0797119140625" class="er attributeBoxEven"/><text style="dominant-baseline: middle; font-size: 10.2px;" transform="translate(117.0797119140625,55.5)" y="0" x="0" id="text-entity-TRANSACTION-33a4f79e-93d2-5b31-be7e-7dfe596c998b-attr-2-key" class="er entityLabel"/><rect height="21" width="89.9986572265625" y="45" x="135.87469482421875" class="er attributeBoxEven"/><text style="dominant-baseline: middle; font-size: 10.2px;" transform="translate(140.87469482421875,55.5)" y="0" x="0" id="text-entity-TRANSACTION-33a4f79e-93d2-5b31-be7e-7dfe596c998b-attr-2-comment" class="er entityLabel"/><rect height="21" width="49.4078369140625" y="66" x="0" class="er attributeBoxOdd"/><text style="dominant-baseline: middle; font-size: 10.2px;" transform="translate(5,76.5)" y="0" x="0" id="text-entity-TRANSACTION-33a4f79e-93d2-5b31-be7e-7dfe596c998b-attr-3-type" class="er entityLabel">int</text><rect height="21" width="62.671875" y="66" x="49.4078369140625" class="er attributeBoxOdd"/><text style="dominant-baseline: middle; font-size: 10.2px;" transform="translate(54.4078369140625,76.5)" y="0" x="0" id="text-entity-TRANSACTION-33a4f79e-93d2-5b31-be7e-7dfe596c998b-attr-3-name" class="er entityLabel">category_id</text><rect height="21" width="23.79498291015625" y="66" x="112.0797119140625" class="er attributeBoxOdd"/><text style="dominant-baseline: middle; font-size: 10.2px;" transform="translate(117.0797119140625,76.5)" y="0" x="0" id="text-entity-TRANSACTION-33a4f79e-93d2-5b31-be7e-7dfe596c998b-attr-3-key" class="er entityLabel">FK</text><rect height="21" width="89.9986572265625" y="66" x="135.87469482421875" class="er attributeBoxOdd"/><text style="dominant-baseline: middle; font-size: 10.2px;" transform="translate(140.87469482421875,76.5)" y="0" x="0" id="text-entity-TRANSACTION-33a4f79e-93d2-5b31-be7e-7dfe596c998b-attr-3-comment" class="er entityLabel"/><rect height="21" width="49.4078369140625" y="87" x="0" class="er attributeBoxEven"/><text style="dominant-baseline: middle; font-size: 10.2px;" transform="translate(5,97.5)" y="0" x="0" id="text-entity-TRANSACTION-33a4f79e-93d2-5b31-be7e-7dfe596c998b-attr-4-type" class="er entityLabel">int</text><rect height="21" width="62.671875" y="87" x="49.4078369140625" class="er attributeBoxEven"/><text style="dominant-baseline: middle; font-size: 10.2px;" transform="translate(54.4078369140625,97.5)" y="0" x="0" id="text-entity-TRANSACTION-33a4f79e-93d2-5b31-be7e-7dfe596c998b-attr-4-name" class="er entityLabel">user_id</text><rect height="21" width="23.79498291015625" y="87" x="112.0797119140625" class="er attributeBoxEven"/><text style="dominant-baseline: middle; font-size: 10.2px;" transform="translate(117.0797119140625,97.5)" y="0" x="0" id="text-entity-TRANSACTION-33a4f79e-93d2-5b31-be7e-7dfe596c998b-attr-4-key" class="er entityLabel">FK</text><rect height="21" width="89.9986572265625" y="87" x="135.87469482421875" class="er attributeBoxEven"/><text style="dominant-baseline: middle; font-size: 10.2px;" transform="translate(140.87469482421875,97.5)" y="0" x="0" id="text-entity-TRANSACTION-33a4f79e-93d2-5b31-be7e-7dfe596c998b-attr-4-comment" class="er entityLabel"/><rect height="21" width="49.4078369140625" y="108" x="0" class="er attributeBoxOdd"/><text style="dominant-baseline: middle; font-size: 10.2px;" transform="translate(5,118.5)" y="0" x="0" id="text-entity-TRANSACTION-33a4f79e-93d2-5b31-be7e-7dfe596c998b-attr-5-type" class="er entityLabel">datetime</text><rect height="21" width="62.671875" y="108" x="49.4078369140625" class="er attributeBoxOdd"/><text style="dominant-baseline: middle; font-size: 10.2px;" transform="translate(54.4078369140625,118.5)" y="0" x="0" id="text-entity-TRANSACTION-33a4f79e-93d2-5b31-be7e-7dfe596c998b-attr-5-name" class="er entityLabel">created_at</text><rect height="21" width="23.79498291015625" y="108" x="112.0797119140625" class="er attributeBoxOdd"/><text style="dominant-baseline: middle; font-size: 10.2px;" transform="translate(117.0797119140625,118.5)" y="0" x="0" id="text-entity-TRANSACTION-33a4f79e-93d2-5b31-be7e-7dfe596c998b-attr-5-key" class="er entityLabel"/><rect height="21" width="89.9986572265625" y="108" x="135.87469482421875" class="er attributeBoxOdd"/><text style="dominant-baseline: middle; font-size: 10.2px;" transform="translate(140.87469482421875,118.5)" y="0" x="0" id="text-entity-TRANSACTION-33a4f79e-93d2-5b31-be7e-7dfe596c998b-attr-5-comment" class="er entityLabel"/><rect height="21" width="49.4078369140625" y="129" x="0" class="er attributeBoxEven"/><text style="dominant-baseline: middle; font-size: 10.2px;" transform="translate(5,139.5)" y="0" x="0" id="text-entity-TRANSACTION-33a4f79e-93d2-5b31-be7e-7dfe596c998b-attr-6-type" class="er entityLabel">string</text><rect height="21" width="62.671875" y="129" x="49.4078369140625" class="er attributeBoxEven"/><text style="dominant-baseline: middle; font-size: 10.2px;" transform="translate(54.4078369140625,139.5)" y="0" x="0" id="text-entity-TRANSACTION-33a4f79e-93d2-5b31-be7e-7dfe596c998b-attr-6-name" class="er entityLabel">type</text><rect height="21" width="23.79498291015625" y="129" x="112.0797119140625" class="er attributeBoxEven"/><text style="dominant-baseline: middle; font-size: 10.2px;" transform="translate(117.0797119140625,139.5)" y="0" x="0" id="text-entity-TRANSACTION-33a4f79e-93d2-5b31-be7e-7dfe596c998b-attr-6-key" class="er entityLabel"/><rect height="21" width="89.9986572265625" y="129" x="135.87469482421875" class="er attributeBoxEven"/><text style="dominant-baseline: middle; font-size: 10.2px;" transform="translate(140.87469482421875,139.5)" y="0" x="0" id="text-entity-TRANSACTION-33a4f79e-93d2-5b31-be7e-7dfe596c998b-attr-6-comment" class="er entityLabel">expense | income</text></g><g transform="translate(20,249 )" id="entity-REPORT-5c49cc59-f6fa-5b89-8907-e4ddb797db98"><rect height="171" width="146.97509765625" y="0" x="0" class="er entityBox"/><text style="dominant-baseline: middle; text-anchor: middle; font-size: 12px;" transform="translate(73.487548828125,12)" y="0" x="0" id="text-entity-REPORT-5c49cc59-f6fa-5b89-8907-e4ddb797db98" class="er entityLabel">REPORT</text><rect height="21" width="49.4078369140625" y="24" x="0" class="er attributeBoxOdd"/><text style="dominant-baseline: middle; font-size: 10.2px;" transform="translate(5,34.5)" y="0" x="0" id="text-entity-REPORT-5c49cc59-f6fa-5b89-8907-e4ddb797db98-attr-1-type" class="er entityLabel">int</text><rect height="21" width="73.77227783203125" y="24" x="49.4078369140625" class="er attributeBoxOdd"/><text style="dominant-baseline: middle; font-size: 10.2px;" transform="translate(54.4078369140625,34.5)" y="0" x="0" id="text-entity-REPORT-5c49cc59-f6fa-5b89-8907-e4ddb797db98-attr-1-name" class="er entityLabel">id</text><rect height="21" width="23.79498291015625" y="24" x="123.18011474609375" class="er attributeBoxOdd"/><text style="dominant-baseline: middle; font-size: 10.2px;" transform="translate(128.18011474609375,34.5)" y="0" x="0" id="text-entity-REPORT-5c49cc59-f6fa-5b89-8907-e4ddb797db98-attr-1-key" class="er entityLabel">PK</text><rect height="21" width="49.4078369140625" y="45" x="0" class="er attributeBoxEven"/><text style="dominant-baseline: middle; font-size: 10.2px;" transform="translate(5,55.5)" y="0" x="0" id="text-entity-REPORT-5c49cc59-f6fa-5b89-8907-e4ddb797db98-attr-2-type" class="er entityLabel">int</text><rect height="21" width="73.77227783203125" y="45" x="49.4078369140625" class="er attributeBoxEven"/><text style="dominant-baseline: middle; font-size: 10.2px;" transform="translate(54.4078369140625,55.5)" y="0" x="0" id="text-entity-REPORT-5c49cc59-f6fa-5b89-8907-e4ddb797db98-attr-2-name" class="er entityLabel">user_id</text><rect height="21" width="23.79498291015625" y="45" x="123.18011474609375" class="er attributeBoxEven"/><text style="dominant-baseline: middle; font-size: 10.2px;" transform="translate(128.18011474609375,55.5)" y="0" x="0" id="text-entity-REPORT-5c49cc59-f6fa-5b89-8907-e4ddb797db98-attr-2-key" class="er entityLabel">FK</text><rect height="21" width="49.4078369140625" y="66" x="0" class="er attributeBoxOdd"/><text style="dominant-baseline: middle; font-size: 10.2px;" transform="translate(5,76.5)" y="0" x="0" id="text-entity-REPORT-5c49cc59-f6fa-5b89-8907-e4ddb797db98-attr-3-type" class="er entityLabel">datetime</text><rect height="21" width="73.77227783203125" y="66" x="49.4078369140625" class="er attributeBoxOdd"/><text style="dominant-baseline: middle; font-size: 10.2px;" transform="translate(54.4078369140625,76.5)" y="0" x="0" id="text-entity-REPORT-5c49cc59-f6fa-5b89-8907-e4ddb797db98-attr-3-name" class="er entityLabel">month</text><rect height="21" width="23.79498291015625" y="66" x="123.18011474609375" class="er attributeBoxOdd"/><text style="dominant-baseline: middle; font-size: 10.2px;" transform="translate(128.18011474609375,76.5)" y="0" x="0" id="text-entity-REPORT-5c49cc59-f6fa-5b89-8907-e4ddb797db98-attr-3-key" class="er entityLabel"/><rect height="21" width="49.4078369140625" y="87" x="0" class="er attributeBoxEven"/><text style="dominant-baseline: middle; font-size: 10.2px;" transform="translate(5,97.5)" y="0" x="0" id="text-entity-REPORT-5c49cc59-f6fa-5b89-8907-e4ddb797db98-attr-4-type" class="er entityLabel">decimal</text><rect height="21" width="73.77227783203125" y="87" x="49.4078369140625" class="er attributeBoxEven"/><text style="dominant-baseline: middle; font-size: 10.2px;" transform="translate(54.4078369140625,97.5)" y="0" x="0" id="text-entity-REPORT-5c49cc59-f6fa-5b89-8907-e4ddb797db98-attr-4-name" class="er entityLabel">total_income</text><rect height="21" width="23.79498291015625" y="87" x="123.18011474609375" class="er attributeBoxEven"/><text style="dominant-baseline: middle; font-size: 10.2px;" transform="translate(128.18011474609375,97.5)" y="0" x="0" id="text-entity-REPORT-5c49cc59-f6fa-5b89-8907-e4ddb797db98-attr-4-key" class="er entityLabel"/><rect height="21" width="49.4078369140625" y="108" x="0" class="er attributeBoxOdd"/><text style="dominant-baseline: middle; font-size: 10.2px;" transform="translate(5,118.5)" y="0" x="0" id="text-entity-REPORT-5c49cc59-f6fa-5b89-8907-e4ddb797db98-attr-5-type" class="er entityLabel">decimal</text><rect height="21" width="73.77227783203125" y="108" x="49.4078369140625" class="er attributeBoxOdd"/><text style="dominant-baseline: middle; font-size: 10.2px;" transform="translate(54.4078369140625,118.5)" y="0" x="0" id="text-entity-REPORT-5c49cc59-f6fa-5b89-8907-e4ddb797db98-attr-5-name" class="er entityLabel">total_expense</text><rect height="21" width="23.79498291015625" y="108" x="123.18011474609375" class="er attributeBoxOdd"/><text style="dominant-baseline: middle; font-size: 10.2px;" transform="translate(128.18011474609375,118.5)" y="0" x="0" id="text-entity-REPORT-5c49cc59-f6fa-5b89-8907-e4ddb797db98-attr-5-key" class="er entityLabel"/><rect height="21" width="49.4078369140625" y="129" x="0" class="er attributeBoxEven"/><text style="dominant-baseline: middle; font-size: 10.2px;" transform="translate(5,139.5)" y="0" x="0" id="text-entity-REPORT-5c49cc59-f6fa-5b89-8907-e4ddb797db98-attr-6-type" class="er entityLabel">datetime</text><rect height="21" width="73.77227783203125" y="129" x="49.4078369140625" class="er attributeBoxEven"/><text style="dominant-baseline: middle; font-size: 10.2px;" transform="translate(54.4078369140625,139.5)" y="0" x="0" id="text-entity-REPORT-5c49cc59-f6fa-5b89-8907-e4ddb797db98-attr-6-name" class="er entityLabel">generated_at</text><rect height="21" width="23.79498291015625" y="129" x="123.18011474609375" class="er attributeBoxEven"/><text style="dominant-baseline: middle; font-size: 10.2px;" transform="translate(128.18011474609375,139.5)" y="0" x="0" id="text-entity-REPORT-5c49cc59-f6fa-5b89-8907-e4ddb797db98-attr-6-key" class="er entityLabel"/><rect height="21" width="49.4078369140625" y="150" x="0" class="er attributeBoxOdd"/><text style="dominant-baseline: middle; font-size: 10.2px;" transform="translate(5,160.5)" y="0" x="0" id="text-entity-REPORT-5c49cc59-f6fa-5b89-8907-e4ddb797db98-attr-7-type" class="er entityLabel">string</text><rect height="21" width="73.77227783203125" y="150" x="49.4078369140625" class="er attributeBoxOdd"/><text style="dominant-baseline: middle; font-size: 10.2px;" transform="translate(54.4078369140625,160.5)" y="0" x="0" id="text-entity-REPORT-5c49cc59-f6fa-5b89-8907-e4ddb797db98-attr-7-name" class="er entityLabel">pdf_url</text><rect height="21" width="23.79498291015625" y="150" x="123.18011474609375" class="er attributeBoxOdd"/><text style="dominant-baseline: middle; font-size: 10.2px;" transform="translate(128.18011474609375,160.5)" y="0" x="0" id="text-entity-REPORT-5c49cc59-f6fa-5b89-8907-e4ddb797db98-attr-7-key" class="er entityLabel"/></g><g transform="translate(522.9214782714844,541 )" id="entity-OBSERVERPERMISSION-b560e4c3-bcd7-5127-9116-eb844baf7eb0"><rect height="108" width="178.5" y="0" x="0" class="er entityBox"/><text style="dominant-baseline: middle; text-anchor: middle; font-size: 12px;" transform="translate(89.25,12)" y="0" x="0" id="text-entity-OBSERVERPERMISSION-b560e4c3-bcd7-5127-9116-eb844baf7eb0" class="er entityLabel">OBSERVER_PERMISSION</text><rect height="21" width="44.44297281901042" y="24" x="0" class="er attributeBoxOdd"/><text style="dominant-baseline: middle; font-size: 10.2px;" transform="translate(5,34.5)" y="0" x="0" id="text-entity-OBSERVERPERMISSION-b560e4c3-bcd7-5127-9116-eb844baf7eb0-attr-1-type" class="er entityLabel">int</text><rect height="21" width="86.74820963541667" y="24" x="44.44297281901042" class="er attributeBoxOdd"/><text style="dominant-baseline: middle; font-size: 10.2px;" transform="translate(49.44297281901042,34.5)" y="0" x="0" id="text-entity-OBSERVERPERMISSION-b560e4c3-bcd7-5127-9116-eb844baf7eb0-attr-1-name" class="er entityLabel">id</text><rect height="21" width="47.30881754557292" y="24" x="131.1911824544271" class="er attributeBoxOdd"/><text style="dominant-baseline: middle; font-size: 10.2px;" transform="translate(136.1911824544271,34.5)" y="0" x="0" id="text-entity-OBSERVERPERMISSION-b560e4c3-bcd7-5127-9116-eb844baf7eb0-attr-1-key" class="er entityLabel">PK</text><rect height="21" width="44.44297281901042" y="45" x="0" class="er attributeBoxEven"/><text style="dominant-baseline: middle; font-size: 10.2px;" transform="translate(5,55.5)" y="0" x="0" id="text-entity-OBSERVERPERMISSION-b560e4c3-bcd7-5127-9116-eb844baf7eb0-attr-2-type" class="er entityLabel">int</text><rect height="21" width="86.74820963541667" y="45" x="44.44297281901042" class="er attributeBoxEven"/><text style="dominant-baseline: middle; font-size: 10.2px;" transform="translate(49.44297281901042,55.5)" y="0" x="0" id="text-entity-OBSERVERPERMISSION-b560e4c3-bcd7-5127-9116-eb844baf7eb0-attr-2-name" class="er entityLabel">admin_id</text><rect height="21" width="47.30881754557292" y="45" x="131.1911824544271" class="er attributeBoxEven"/><text style="dominant-baseline: middle; font-size: 10.2px;" transform="translate(136.1911824544271,55.5)" y="0" x="0" id="text-entity-OBSERVERPERMISSION-b560e4c3-bcd7-5127-9116-eb844baf7eb0-attr-2-key" class="er entityLabel">FK</text><rect height="21" width="44.44297281901042" y="66" x="0" class="er attributeBoxOdd"/><text style="dominant-baseline: middle; font-size: 10.2px;" transform="translate(5,76.5)" y="0" x="0" id="text-entity-OBSERVERPERMISSION-b560e4c3-bcd7-5127-9116-eb844baf7eb0-attr-3-type" class="er entityLabel">int</text><rect height="21" width="86.74820963541667" y="66" x="44.44297281901042" class="er attributeBoxOdd"/><text style="dominant-baseline: middle; font-size: 10.2px;" transform="translate(49.44297281901042,76.5)" y="0" x="0" id="text-entity-OBSERVERPERMISSION-b560e4c3-bcd7-5127-9116-eb844baf7eb0-attr-3-name" class="er entityLabel">observer_id</text><rect height="21" width="47.30881754557292" y="66" x="131.1911824544271" class="er attributeBoxOdd"/><text style="dominant-baseline: middle; font-size: 10.2px;" transform="translate(136.1911824544271,76.5)" y="0" x="0" id="text-entity-OBSERVERPERMISSION-b560e4c3-bcd7-5127-9116-eb844baf7eb0-attr-3-key" class="er entityLabel">FK</text><rect height="21" width="44.44297281901042" y="87" x="0" class="er attributeBoxEven"/><text style="dominant-baseline: middle; font-size: 10.2px;" transform="translate(5,97.5)" y="0" x="0" id="text-entity-OBSERVERPERMISSION-b560e4c3-bcd7-5127-9116-eb844baf7eb0-attr-4-type" class="er entityLabel">int</text><rect height="21" width="86.74820963541667" y="87" x="44.44297281901042" class="er attributeBoxEven"/><text style="dominant-baseline: middle; font-size: 10.2px;" transform="translate(49.44297281901042,97.5)" y="0" x="0" id="text-entity-OBSERVERPERMISSION-b560e4c3-bcd7-5127-9116-eb844baf7eb0-attr-4-name" class="er entityLabel">category_id</text><rect height="21" width="47.30881754557292" y="87" x="131.1911824544271" class="er attributeBoxEven"/><text style="dominant-baseline: middle; font-size: 10.2px;" transform="translate(136.1911824544271,97.5)" y="0" x="0" id="text-entity-OBSERVERPERMISSION-b560e4c3-bcd7-5127-9116-eb844baf7eb0-attr-4-key" class="er entityLabel">FK</text></g><rect height="14" width="28.015625" y="193.59402465820312" x="338.265869140625" class="er relationshipLabelBox"/><text style="text-anchor: middle; dominant-baseline: middle; font-size: 12px;" y="200.59402465820312" x="352.273681640625" id="rel1" class="er relationshipLabel">owns</text><rect height="14" width="35.34375" y="294.82733154296875" x="-97.22665405273438" class="er relationshipLabelBox"/><text style="text-anchor: middle; dominant-baseline: middle; font-size: 12px;" y="301.82733154296875" x="-79.55477905273438" id="rel2" class="er relationshipLabel">makes</text><rect height="14" width="65.375" y="474.6246032714844" x="299.1969909667969" class="er relationshipLabelBox"/><text style="text-anchor: middle; dominant-baseline: middle; font-size: 12px;" y="481.6246032714844" x="331.8844909667969" id="rel3" class="er relationshipLabel">classified as</text><rect height="14" width="44.6875" y="184.26678466796875" x="86.15916442871094" class="er relationshipLabelBox"/><text style="text-anchor: middle; dominant-baseline: middle; font-size: 12px;" y="191.26678466796875" x="108.50291442871094" id="rel4" class="er relationshipLabel">receives</text><rect height="14" width="49.375" y="268.3146057128906" x="531.3643798828125" class="er relationshipLabelBox"/><text style="text-anchor: middle; dominant-baseline: middle; font-size: 12px;" y="275.3146057128906" x="556.0518798828125" id="rel5" class="er relationshipLabel">manages</text><rect height="14" width="62.703125" y="429.6664123535156" x="549.1528930664062" class="er relationshipLabelBox"/><text style="text-anchor: middle; dominant-baseline: middle; font-size: 12px;" y="436.6664123535156" x="580.5044555664062" id="rel6" class="er relationshipLabel">viewable by</text></svg>